PathFileType	4	(X/Y/Z)	8_coords_data.trc
DataRate	CameraRate	NumFrames	NumMarkers	Units	OrigDataRate	OrigDataStartFrame	OrigNumFrames
30.0	30.0	5	21	m	30.0	1	62
Frame#	Time	THUMB_TIP	THUMB_IP	THUMB_MCP	THUMB_CMC	INDEX_TIP	INDEX_DIP	INDEX_PIP	INDEX_MCP	MIDDLE_TIP	MIDDLE_DIP	MIDDLE_PIP	MIDDLE_MCP	RING_TIP	RING_DIP	RING_PIP	RING_MCP	PINKY_TIP	PINKY_DIP	PINKY_PIP	PINKY_MCP	WRIST
X1	Y1	Z1	X2	Y2	Z2	X3	Y3	Z3	X4	Y4	Z4	X5	Y5	Z5	X6	Y6	Z6	X7	Y7	Z7	X8	Y8	Z8	X9	Y9	Z9	X10	Y10	Z10	X11	Y11	Z11	X12	Y12	Z12	X13	Y13	Z13	X14	Y14	Z14	X15	Y15	Z15	X16	Y16	Z16	X17	Y17	Z17	X18	Y18	Z18	X19	Y19	Z19	X20	Y20	Z20	X21	Y21	Z21
0	-2.749317978547796e-18	0.4900479233727687	-0.016966289599369966	-0.17078515948747505	0.48314330466813127	-0.022190352797909485	-0.14950053113175227	0.4747754863308268	-0.029253141010407213	-0.12036435707029952	0.4750858837477042	-0.03232888785459653	-0.07586341961057796	0.5676616270668241	0.020355804939291677	-0.1771502022595986	0.5544323146446395	0.016015388331718894	-0.1655680575312272	0.5352086850395679	0.01175237329323231	-0.14993832302968663	0.5081239137303898	-0.0006820826980467043	-0.11951735063677205	0.592746309773282	0.04196107631774193	-0.14414098940586925	0.5777156355878724	0.03545064774684614	-0.13641485496778677	0.5529113611315478	0.028063357220707297	-0.12301390509929827	0.5191246732298209	0.008787909114538195	-0.10103517124273365	0.6013953681581125	0.03889404038377553	-0.10626055807658358	0.5849132065948986	0.034482043393855966	-0.10044053807961956	0.5617259025642833	0.02936777541209301	-0.09293233098321302	0.5301537429890286	0.006215587544615375	-0.08283798748283255	0.6040449059499248	0.010716216760092712	-0.05678478316742325	0.5870749785535311	0.00865250911985016	-0.05765809578998571	0.5662471855517361	0.007261689266106486	-0.05991213168340326	0.5317762462018302	-0.0018394050825087938	-0.06537179037170182	0.4622830810018608	-0.023011742144276925	-0.051989820119430985
1	0.03333333333333339	0.49079597838521394	-0.017499108982860223	-0.17091665681131268	0.48401600370392117	-0.022713618040661854	-0.14958965893052484	0.4751418887812504	-0.029414838682203737	-0.1205179591822712	0.4745096553464446	-0.03266188322521757	-0.07603260223619746	0.5671563861043032	0.02068624072371983	-0.17753460805726853	0.5540022547319718	0.016192628205397797	-0.1659252896287548	0.534973575185041	0.01188671467052993	-0.15007037567974663	0.5079761726629572	-0.0005617751053089703	-0.11957756581641288	0.5923312188608645	0.042365643480603676	-0.14420614495688652	0.5772857099527414	0.035861095900219464	-0.13650396848071364	0.552338447249045	0.028606092686392692	-0.12329758510144861	0.5185808713800887	0.009187259713475227	-0.10140048669956925	0.6016216249809141	0.03872873035699742	-0.10628407246556781	0.5850837519286942	0.034476240827673976	-0.10050349397274766	0.5619023491673943	0.029420102500014256	-0.09293791334532892	0.5296363408951004	0.007137213306197987	-0.08308406164417342	0.603997787750115	0.010983008766891178	-0.05655041776277259	0.5870116250602512	0.009082367880450803	-0.05747661498489692	0.5661723344807374	0.007657949242972251	-0.05959958900447199	0.5315563249405778	-0.0009098620740586316	-0.06500402641750036	0.4622830810018609	-0.023011742144276925	-0.051989820119430985
2	0.06666666666666676	0.4912976321077278	-0.017928676797941412	-0.17099258031820136	0.484605716226879	-0.0231352502613259	-0.14963585176221628	0.4753536533813484	-0.029561776652698768	-0.12062000968166764	0.47403569433597237	-0.03293166799416092	-0.07615882642816602	0.5667900379825364	0.02095135399816417	-0.1778009536456278	0.5536894515098901	0.01634375928187959	-0.16617577816294427	0.5348084777305586	0.011999564977069443	-0.15015558347042404	0.5078735420299699	-0.0004718178534675044	-0.11961692038411093	0.5920110232689486	0.042683817342790475	-0.14424123150803303	0.5769526140383544	0.036182633973267264	-0.13656145766762645	0.5519005104443414	0.029023539828654354	-0.1235020156219871	0.5181603668629862	0.009495755911521853	-0.10167505322692805	0.6017173068482347	0.03866853622622868	-0.10629921003592663	0.5851365142983439	0.03454074532896667	-0.10055128339008523	0.5619594761229167	0.02952636794301744	-0.09294464813880127	0.5292237398220953	0.007861178437228333	-0.0832641540129142	0.6039451102730576	0.011183559038766222	-0.05633628167127791	0.5869474964647075	0.00941121791259747	-0.057305782447281794	0.5661008853715868	0.007963612836803136	-0.05933931741789772	0.5313794387906006	-0.00019292723571584514	-0.06470359298586748	0.462283081001861	-0.023011742144276925	-0.051989820119430985
3	0.10000000000000014	0.49163202486644053	-0.01825423657386782	-0.17103207180702473	0.4849955163880362	-0.02345422177436196	-0.14965645698240018	0.4754745742526345	-0.029681987646067665	-0.12068428769700573	0.4736750028044737	-0.03313637884508103	-0.07624648032482384	0.5665497301686953	0.02116022134392337	-0.17796322675898385	0.5534840431998519	0.016471085366246085	-0.1663313813415512	0.5347068534866574	0.01209258499667476	-0.15019893843948698	0.5078117947769633	-0.00040982642235942723	-0.11963782557180308	0.5917890591943801	0.04291826934396126	-0.14424327275476845	0.5767194727300252	0.03641835331712151	-0.13658437887657912	0.5515927208015794	0.02932528151869218	-0.12363276816637508	0.5178597818639943	0.009718420744286194	-0.10186564244417162	0.6017523381486286	0.03865971142378544	-0.1062997186257773	0.5851404936350705	0.034622212064852165	-0.10057737463192418	0.5619663669364633	0.02963563119932977	-0.09294364408726191	0.5289200778941509	0.008392721266172631	-0.08338318426026026	0.6039002694839892	0.011320737213283638	-0.05615113487020312	0.586895025836618	0.009643056844824471	-0.05715466716904827	0.5660439683388618	0.008180283979537295	-0.059130955551305264	0.5312493046368347	0.00032424869849412286	-0.06446926413416615	0.462283081001861	-0.023011742144276925	-0.051989820119430985
4	0.13333333333333353	0.4918541002735395	-0.01848177174164778	-0.1710477253041685	0.4852446854493768	-0.0236761757528946	-0.14966236108818934	0.4755465606682562	-0.02977035978707232	-0.12072056956300242	0.4734291028024207	-0.033278367321683544	-0.07630097641624428	0.5664205681011678	0.021321117469906503	-0.1780354612906936	0.553373858371241	0.016577230653253006	-0.1664045153664011	0.5346610264755822	0.0121678231162905	-0.15020584626620034	0.5077858919190358	-0.00037294041980651116	-0.1196429195984347	0.5916613837767738	0.043075066563668885	-0.14421312346803533	0.5765821334131664	0.0365747420320115	-0.1365736215566028	0.5514048664053833	0.029523105505110614	-0.12369770612074815	0.5176703405517058	0.009862869320331313	-0.10198124232973793	0.6017664710979813	0.03866974057451922	-0.10628367132585187	0.5851342092787715	0.03469027427705307	-0.10058001330975513	0.5619616712979298	0.02971974255146581	-0.0929310083488869	0.5287220898771872	0.008745402447468908	-0.08344796462992798	0.6038706729507237	0.011399802301075623	-0.055998384479008956	0.5868607983345457	0.009785691087005	-0.05702736967351829	0.5660073645175216	0.008314043369307855	-0.05897173847443826	0.5311656040376451	0.0006605144361016002	-0.06429702461994208	0.462283081001861	-0.023011742144276925	-0.051989820119430985
